<?xml version="1.0" encoding="UTF-8"?>
<svg xmlns="http://www.w3.org/2000/svg" viewBox="84 18 116 22" width="116" height="22">
<path fill="#FFFFFF" d="M89.2,37c-0.8,0-1.4-0.1-1.7-0.4c-0.3-0.3-0.4-0.8-0.4-1.5v-9.3c0-0.8,0.2-1.4,0.5-1.7 c0.3-0.3,0.9-0.5,1.7-0.5h2.6c1.3,0,2.4,0.3,3.1,0.9s1.1,1.4,1.1,2.4c0,0.7-0.1,1.2-0.4,1.6s-0.7,0.8-1.3,1c0.9,0.2,1.6,0.6,2,1.2 c0.5,0.6,0.7,1.3,0.7,2.2c0,1.3-0.4,2.2-1.3,3c-0.9,0.7-2,1.1-3.6,1.1C92.1,37,89.2,37,89.2,37z M90.2,34.4h1.6 c0.7,0,1.2-0.1,1.6-0.4c0.4-0.3,0.5-0.6,0.5-1.1s-0.2-0.9-0.5-1.1s-0.9-0.4-1.6-0.4h-1.5L90.2,34.4L90.2,34.4z M90.2,28.8h1.3 c0.5,0,0.8-0.1,1.1-0.4c0.3-0.2,0.4-0.6,0.4-0.9c0-0.4-0.1-0.7-0.4-1s-0.7-0.4-1.1-0.4h-1.3V28.8z"></path>
<path fill="#FFFFFF" d="M101.8,34.9c0,0.7-0.1,1.3-0.4,1.6s-0.6,0.5-1.1,0.5s-0.9-0.2-1.1-0.5c-0.2-0.4-0.4-0.9-0.4-1.6v-6 c0-0.7,0.1-1.3,0.4-1.6c0.2-0.4,0.6-0.5,1.1-0.5s0.9,0.2,1.1,0.5c0.2,0.4,0.4,0.9,0.4,1.6V34.9z M98.5,24.3c0-0.5,0.2-0.9,0.5-1.2 s0.8-0.5,1.2-0.5c0.5,0,0.9,0.2,1.2,0.5s0.5,0.7,0.5,1.2s-0.2,0.9-0.5,1.2s-0.7,0.5-1.2,0.5s-0.9-0.2-1.2-0.5S98.5,24.8,98.5,24.3z"></path>
<path fill="#FFFFFF" d="M104,24.8c0-0.7,0.1-1.3,0.4-1.6c0.2-0.4,0.6-0.5,1.1-0.5s0.9,0.2,1.1,0.5c0.2,0.4,0.4,0.9,0.4,1.6v10.1 c0,0.7-0.1,1.3-0.4,1.6c-0.2,0.4-0.6,0.5-1.1,0.5s-0.9-0.2-1.1-0.5c-0.2-0.4-0.4-0.9-0.4-1.6V24.8z"></path>
<path fill="#FFFFFF" d="M115.3,37.4c-2,0-3.6-0.6-4.8-1.9c-1.2-1.3-1.8-3-1.8-5.1s0.6-3.8,1.9-5.1s2.9-2,4.8-2 c1.1,0,2.1,0.2,2.9,0.6s1.2,0.9,1.2,1.5c0,0.4-0.1,0.7-0.4,1s-0.6,0.4-0.9,0.4c-0.2,0-0.6-0.1-1.2-0.3c-0.6-0.2-1.1-0.3-1.5-0.3 c-1,0-1.8,0.4-2.4,1.1s-0.9,1.8-0.9,3s0.3,2.2,0.9,3c0.6,0.7,1.5,1.1,2.5,1.1c0.5,0,1-0.1,1.7-0.3c0.6-0.2,1-0.3,1.2-0.3 c0.3,0,0.6,0.1,0.9,0.4c0.3,0.3,0.4,0.6,0.4,0.9c0,0.6-0.4,1.2-1.2,1.6C117.5,37.1,116.5,37.4,115.3,37.4z"></path>
<path fill="#FFFFFF" d="M120.8,24.8c0-0.7,0.1-1.3,0.4-1.6c0.2-0.4,0.6-0.5,1.1-0.5s0.9,0.2,1.1,0.5c0.2,0.4,0.4,0.9,0.4,1.6v10.1 c0,0.7-0.1,1.3-0.4,1.6s-0.6,0.5-1.1,0.5s-0.9-0.2-1.1-0.5c-0.2-0.4-0.4-0.9-0.4-1.6V24.8z"></path>
<path fill="#FFFFFF" d="M128.5,32.8c0.1,0.6,0.3,1,0.7,1.3s0.9,0.5,1.6,0.5c0.6,0,1.2-0.2,1.9-0.5c0.7-0.3,1.1-0.5,1.3-0.5 c0.4,0,0.6,0.1,0.9,0.3s0.3,0.5,0.3,0.8c0,0.6-0.5,1.2-1.4,1.7s-2,0.8-3.2,0.8c-1.5,0-2.7-0.5-3.7-1.5s-1.5-2.2-1.5-3.8 c0-1.5,0.5-2.8,1.5-3.8s2.2-1.5,3.6-1.5c1.4,0,2.6,0.5,3.5,1.4s1.4,2.1,1.4,3.5c0,0.4-0.1,0.8-0.3,0.9c-0.2,0.2-0.6,0.3-1.2,0.3 h-5.4V32.8z M128.4,30.9h4c0-0.5-0.2-0.9-0.6-1.3c-0.4-0.3-0.8-0.5-1.3-0.5s-1,0.2-1.3,0.5C128.9,29.9,128.5,30.3,128.4,30.9z"></path>
<path fill="#FFFFFF" d="M139.2,31.9c0,0.7,0.2,1.3,0.5,1.8c0.4,0.4,0.8,0.7,1.4,0.7s1-0.2,1.4-0.7c0.4-0.4,0.5-1,0.5-1.7 s-0.2-1.3-0.5-1.7c-0.4-0.4-0.8-0.7-1.4-0.7c-0.6,0-1,0.2-1.4,0.7C139.5,30.7,139.2,31.2,139.2,31.9z M143.2,36.1 c-0.3,0.4-0.7,0.6-1.1,0.8s-0.9,0.3-1.4,0.3c-1.3,0-2.4-0.5-3.3-1.5c-0.9-1-1.3-2.2-1.3-3.7s0.5-2.7,1.4-3.7s2-1.5,3.3-1.5 c0.5,0,1,0.1,1.4,0.3c0.4,0.2,0.7,0.4,1.1,0.8c0.2-0.3,0.4-0.5,0.6-0.7s0.5-0.2,0.8-0.2c0.5,0,0.9,0.2,1.1,0.5 c0.2,0.3,0.4,0.9,0.4,1.6v6c0,0.7-0.1,1.3-0.4,1.6c-0.2,0.4-0.6,0.5-1.1,0.5c-0.3,0-0.6-0.1-0.9-0.2 C143.5,36.7,143.4,36.4,143.2,36.1z"></path>
<path fill="#FFFFFF" d="M148.2,34.9v-6c0-0.7,0.1-1.3,0.4-1.6c0.2-0.4,0.6-0.5,1.1-0.5c0.3,0,0.6,0.1,0.8,0.2 c0.2,0.2,0.4,0.4,0.6,0.7c0.3-0.3,0.7-0.6,1.1-0.8c0.4-0.2,0.9-0.2,1.5-0.2c1.2,0,2.1,0.3,2.7,1s0.9,1.6,0.9,2.9v4.2 c0,0.7-0.1,1.3-0.4,1.6c-0.2,0.4-0.6,0.5-1.1,0.5s-0.9-0.2-1.1-0.5c-0.2-0.4-0.4-0.9-0.4-1.6v-3.3c0-0.8-0.1-1.4-0.4-1.8 c-0.3-0.4-0.7-0.5-1.2-0.5s-1,0.2-1.2,0.5c-0.3,0.4-0.4,0.9-0.4,1.7v3.4c0,0.7-0.1,1.3-0.4,1.6c-0.2,0.4-0.6,0.5-1.1,0.5 s-0.9-0.2-1.1-0.5C148.4,36.2,148.2,35.7,148.2,34.9z"></path>
<path fill="#FFFFFF" d="M162.6,34.9c0,0.7-0.1,1.3-0.4,1.6s-0.6,0.5-1.1,0.5s-0.9-0.2-1.1-0.5c-0.2-0.4-0.4-0.9-0.4-1.6v-6 c0-0.7,0.1-1.3,0.4-1.6c0.2-0.4,0.6-0.5,1.1-0.5s0.9,0.2,1.1,0.5c0.2,0.4,0.4,0.9,0.4,1.6V34.9z M159.4,24.3c0-0.5,0.2-0.9,0.5-1.2 c0.3-0.3,0.8-0.5,1.2-0.5c0.5,0,0.9,0.2,1.2,0.5c0.3,0.3,0.5,0.7,0.5,1.2s-0.2,0.9-0.5,1.2c-0.3,0.3-0.7,0.5-1.2,0.5 s-0.9-0.2-1.2-0.5C159.5,25.2,159.4,24.8,159.4,24.3z"></path>
<path fill="#FFFFFF" d="M167.9,30.2l2.6-2.6c0.3-0.3,0.5-0.5,0.8-0.6c0.2-0.1,0.5-0.2,0.8-0.2c0.4,0,0.7,0.1,0.9,0.3 c0.2,0.2,0.4,0.5,0.4,0.8c0,0.2-0.1,0.5-0.2,0.7c-0.1,0.3-0.3,0.5-0.6,0.7l-2,1.8l2.8,3.3c0.2,0.2,0.4,0.5,0.4,0.7 c0.1,0.2,0.1,0.5,0.1,0.7c0,0.3-0.1,0.6-0.4,0.9c-0.3,0.2-0.6,0.4-1,0.4c-0.3,0-0.6-0.1-0.8-0.2c-0.3-0.1-0.5-0.4-0.7-0.7l-3-3.9V35 c0,0.7-0.1,1.3-0.4,1.6c-0.2,0.4-0.6,0.5-1.1,0.5s-0.9-0.2-1.1-0.5c-0.2-0.4-0.4-0.9-0.4-1.6V24.8c0-0.7,0.1-1.3,0.4-1.6 c0.2-0.4,0.6-0.5,1.1-0.5s0.9,0.2,1.1,0.5c0.2,0.4,0.4,0.9,0.4,1.6v5.4H167.9z"></path>
<path fill="#FFFFFF" d="M177.1,32.8c0.1,0.6,0.3,1,0.7,1.3s0.9,0.5,1.6,0.5c0.6,0,1.2-0.2,1.9-0.5c0.7-0.3,1.1-0.5,1.3-0.5 c0.4,0,0.6,0.1,0.9,0.3s0.3,0.5,0.3,0.8c0,0.6-0.5,1.2-1.4,1.7s-2,0.8-3.2,0.8c-1.5,0-2.7-0.5-3.7-1.5s-1.5-2.2-1.5-3.8 c0-1.5,0.5-2.8,1.5-3.8s2.2-1.5,3.6-1.5c1.4,0,2.6,0.5,3.5,1.4s1.4,2.1,1.4,3.5c0,0.4-0.1,0.8-0.3,0.9c-0.2,0.2-0.6,0.3-1.2,0.3 h-5.4V32.8z M177.1,30.9h4c0-0.5-0.2-0.9-0.6-1.3c-0.4-0.4-0.8-0.5-1.3-0.5s-1,0.2-1.3,0.5C177.5,29.9,177.2,30.3,177.1,30.9z"></path>
<path fill="#FFFFFF" d="M185.4,34.9v-6c0-0.7,0.1-1.3,0.4-1.6c0.2-0.4,0.6-0.5,1.1-0.5c0.3,0,0.6,0.1,0.8,0.2 c0.2,0.2,0.4,0.4,0.6,0.7c0.3-0.3,0.7-0.6,1.1-0.8c0.4-0.2,0.9-0.2,1.5-0.2c1.2,0,2.1,0.3,2.7,1c0.6,0.7,0.9,1.6,0.9,2.9v4.2 c0,0.7-0.1,1.3-0.4,1.6c-0.2,0.4-0.6,0.5-1.1,0.5s-0.9-0.2-1.1-0.5c-0.2-0.4-0.4-0.9-0.4-1.6v-3.3c0-0.8-0.1-1.4-0.4-1.8 c-0.3-0.4-0.7-0.5-1.2-0.5s-1,0.2-1.2,0.5c-0.3,0.4-0.4,0.9-0.4,1.7v3.4c0,0.7-0.1,1.3-0.4,1.6c-0.2,0.4-0.6,0.5-1.1,0.5 s-0.9-0.2-1.1-0.5C185.5,36.2,185.4,35.7,185.4,34.9z"></path>
</svg>