<?xml version="1.0" encoding="UTF-8"?>
<svg xmlns="http://www.w3.org/2000/svg" viewBox="0 0 82 61" width="82" height="61">
<path fill="#DFF2FD" d="M40.3,1.7c-11.2,0-20.3,8.9-20.4,20.1h40.7C60.6,10.6,51.5,1.7,40.3,1.7z"></path><path fill="none" stroke="#0BBBEF" stroke-width="0.1973" stroke-miterlimit="10" d="M40.3,29.4"></path><path fill="none" stroke="#0BBBEF" stroke-width="0.1973" stroke-miterlimit="10" d="M40.3,29.4"></path><path fill="none" stroke="#0BBBEF" stroke-width="0.1973" stroke-miterlimit="10" d="M40.3,33.3"></path><path fill="none" stroke="#0BBBEF" stroke-width="0.1973" stroke-miterlimit="10" d="M40.3,33.3"></path><path fill="none" stroke="#0BBBEF" stroke-width="0.1973" stroke-miterlimit="10" d="M40.3,34.6"></path><path fill="none" stroke="#0BBBEF" stroke-width="0.1973" stroke-miterlimit="10" d="M40.3,34.6"></path><path fill="none" stroke="#0BBBEF" stroke-width="0.1973" stroke-miterlimit="10" d="M40.3,35.9"></path><path fill="none" stroke="#0BBBEF" stroke-width="0.1973" stroke-miterlimit="10" d="M40.3,35.9"></path><path fill="none" stroke="#0BBBEF" stroke-width="0.1973" stroke-miterlimit="10" d="M40.3,37.2"></path><path fill="none" stroke="#0BBBEF" stroke-width="0.1973" stroke-miterlimit="10" d="M40.3,37.2"></path><path fill="#1D1D1B" d="M10.6,53.6L10.6,53.6L10.6,53.6z"></path><path fill="#1D1D1B" d="M10.5,53.3L10.5,53.3L10.5,53.3z"></path><path fill="#1D1D1B" d="M10.7,53.8L10.7,53.8L10.7,53.8z"></path><path fill="#1D1D1B" d="M10.8,54L10.8,54L10.8,54z"></path><path fill="#1D1D1B" d="M10.4,53.1L10.4,53.1L10.4,53.1z"></path><path fill="#1D1D1B" d="M11.1,54.4c0,0,0-0.1-0.1-0.1C11,54.3,11.1,54.4,11.1,54.4z"></path><path fill="#1D1D1B" d="M11,54.2C10.9,54.2,10.9,54.2,11,54.2C10.9,54.2,10.9,54.2,11,54.2z"></path><path fill="#1D1D1B" d="M10.3,52.9C10.3,52.9,10.3,52.8,10.3,52.9C10.3,52.8,10.3,52.9,10.3,52.9z"></path><path fill="#1D1D1B" d="M11.4,54.8c0.1,0.1,0.3,0.3,0.4,0.4C11.7,55.1,11.5,54.9,11.4,54.8z"></path><path fill="#1D1D1B" d="M11.2,44.9v6.9c0,2.1,1.3,3.8,3.2,4.7c-0.1,0-0.1,0-0.2,0c0.4,0.1,0.8,0.1,1.2,0.1h1.7 c2.9,0,5.2-2.2,5.2-4.8V45H11.2V44.9z"></path><path fill="#1D1D1B" d="M14.2,56.4c-0.1,0-0.1,0-0.2,0C14,56.3,14.1,56.3,14.2,56.4z"></path><path fill="#1D1D1B" d="M10.2,52.4L10.2,52.4L10.2,52.4z"></path><path fill="#1D1D1B" d="M10.3,52.7C10.3,52.6,10.3,52.6,10.3,52.7C10.3,52.6,10.3,52.6,10.3,52.7z"></path><path fill="#1D1D1B" d="M11.2,54.6l-0.1-0.1C11.2,54.5,11.2,54.5,11.2,54.6z"></path><path fill="#1D1D1B" d="M10.2,52.2C10.2,52.2,10.2,52.1,10.2,52.2C10.2,52.1,10.2,52.2,10.2,52.2z"></path><path fill="#1D1D1B" d="M10.2,52C10.2,51.9,10.2,51.9,10.2,52C10.2,51.9,10.2,51.9,10.2,52z"></path><path fill="#1D1D1B" d="M12.3,55.6l-0.1-0.1C12.2,55.5,12.3,55.5,12.3,55.6z"></path><path fill="#1D1D1B" d="M12,55.3l-0.1-0.1C11.9,55.2,11.9,55.3,12,55.3z"></path><path fill="#1D1D1B" d="M12.1,55.5L12,55.4C12.1,55.4,12.1,55.4,12.1,55.5z"></path><path fill="#1D1D1B" d="M12.5,55.7c-0.1,0-0.1-0.1-0.2-0.1C12.4,55.6,12.5,55.7,12.5,55.7z"></path><path fill="#1D1D1B" d="M13.9,56.3c-0.1,0-0.1,0-0.2-0.1C13.8,56.3,13.9,56.3,13.9,56.3z"></path><path fill="#1D1D1B" d="M13.7,56.2c-0.4-0.1-0.8-0.3-1.2-0.5C12.9,55.9,13.3,56.1,13.7,56.2z"></path><path fill="#1D1D1B" d="M11.4,54.8l-0.1-0.1C11.3,54.7,11.3,54.7,11.4,54.8z"></path><path fill="#4A4A49" d="M11.2,51.7v-6.9h-1v6.8c0,0.1,0,0.2,0,0.2v0.1c0,0.1,0,0.1,0,0.2v0.1v0.1v0.1v0.1v0.1v0.1v0.1v0.1V53 c0,0,0,0.1,0.1,0.1v0.1c0,0.1,0.1,0.1,0.1,0.2c0,0,0,0,0,0.1c0,0,0,0.1,0.1,0.1v0.1c0,0,0,0.1,0.1,0.1c0,0,0,0.1,0.1,0.1 c0,0,0,0.1,0.1,0.1c0,0,0,0.1,0.1,0.1c0,0,0,0.1,0.1,0.1c0,0,0,0.1,0.1,0.1c0,0,0,0.1,0.1,0.1l0.1,0.1c0,0,0,0,0.1,0.1l0.1,0.1l0,0 c0.1,0.1,0.3,0.3,0.4,0.4l0,0l0.1,0.1l0,0l0.1,0.1l0,0l0.1,0.1l0,0c0.1,0,0.1,0.1,0.2,0.1l0,0c0.4,0.2,0.8,0.4,1.2,0.5l0,0 c0.1,0,0.1,0,0.2,0.1l0,0c0.1,0,0.1,0,0.2,0l0,0c0.1,0,0.1,0,0.2,0C12.5,55.6,11.2,53.8,11.2,51.7z"></path><path fill="#1D1D1B" d="M70.4,52.1C70.4,52.1,70.4,52.2,70.4,52.1C70.4,52.2,70.4,52.1,70.4,52.1z"></path><path fill="#1D1D1B" d="M69.7,54.3C69.7,54.3,69.7,54.4,69.7,54.3C69.5,54.4,69.7,54.3,69.7,54.3z"></path><path fill="#1D1D1B" d="M69.8,54.1C69.8,54.2,69.8,54.2,69.8,54.1C69.8,54.2,69.8,54.2,69.8,54.1z"></path><path fill="#1D1D1B" d="M70.4,52.3C70.4,52.4,70.4,52.4,70.4,52.3C70.4,52.4,70.4,52.4,70.4,52.3z"></path><path fill="#1D1D1B" d="M69.5,54.5L69.5,54.5C69.4,54.5,69.4,54.5,69.5,54.5z"></path><path fill="#1D1D1B" d="M70.4,51.9L70.4,51.9L70.4,51.9z"></path><path fill="#1D1D1B" d="M69.8,53.9C69.8,54,69.8,54,69.8,53.9C69.8,54,69.8,54,69.8,53.9z"></path><path fill="#1D1D1B" d="M70,53.5C70,53.6,70,53.6,70,53.5C70,53.6,70,53.6,70,53.5z"></path><path fill="#1D1D1B" d="M68.8,55.2L68.8,55.2C68.8,55.3,68.8,55.2,68.8,55.2z"></path><path fill="#1D1D1B" d="M69.9,53.7C69.9,53.8,69.9,53.8,69.9,53.7C69.9,53.8,69.9,53.8,69.9,53.7z"></path><path fill="#1D1D1B" d="M70.2,53C70.2,53.1,70.2,53.1,70.2,53C70.2,53.1,70.2,53.1,70.2,53z"></path><path fill="#1D1D1B" d="M70.3,52.8C70.3,52.8,70.3,52.9,70.3,52.8C70.3,52.9,70.3,52.8,70.3,52.8z"></path><path fill="#1D1D1B" d="M66.7,56.3c-0.1,0-0.1,0-0.2,0.1C66.5,56.3,66.7,56.3,66.7,56.3z"></path><path fill="#1D1D1B" d="M70.2,53.3L70.2,53.3L70.2,53.3z"></path><path fill="#1D1D1B" d="M70.3,52.6L70.3,52.6L70.3,52.6z"></path><path fill="#1D1D1B" d="M69.4,51.7v-6.9H58.3v6.8c0,2.7,2.3,4.8,5.2,4.8h1.7c0.4,0,0.8,0,1.2-0.1c-0.1,0-0.1,0-0.2,0 C68.2,55.6,69.4,53.8,69.4,51.7z"></path><path fill="#1D1D1B" d="M68.2,55.6c-0.1,0-0.1,0.1-0.2,0.1C68.2,55.7,68.2,55.6,68.2,55.6z"></path><path fill="#1D1D1B" d="M68.4,55.5L68.4,55.5C68.3,55.5,68.4,55.5,68.4,55.5z"></path><path fill="#1D1D1B" d="M68.2,55.7c-0.4,0.2-0.8,0.4-1.2,0.5C67.3,56.1,67.8,55.9,68.2,55.7z"></path><path fill="#1D1D1B" d="M68.7,55.3L68.7,55.3C68.5,55.4,68.5,55.4,68.7,55.3z"></path><path fill="#1D1D1B" d="M68.8,55.2c0.1-0.1,0.3-0.3,0.4-0.4C69.2,54.9,68.9,55.1,68.8,55.2z"></path><path fill="#1D1D1B" d="M69.3,54.6L69.3,54.6C69.3,54.7,69.3,54.7,69.3,54.6z"></path><path fill="#1D1D1B" d="M66.9,56.2c-0.1,0-0.1,0-0.2,0.1C66.8,56.3,66.8,56.3,66.9,56.2z"></path><path fill="#4A4A49" d="M69.3,54.6C69.3,54.6,69.4,54.6,69.3,54.6c0.1-0.1,0.1-0.1,0.1-0.2c0,0,0-0.1,0.1-0.1c0,0,0-0.1,0.1-0.1 c0,0,0-0.1,0.1-0.1c0,0,0-0.1,0.1-0.1c0,0,0-0.1,0.1-0.1c0,0,0-0.1,0.1-0.1c0,0,0-0.1,0.1-0.1v-0.1c0,0,0-0.1,0.1-0.1c0,0,0,0,0-0.1 s0.1-0.1,0.1-0.2c0,0,0,0,0-0.1c0,0,0-0.1,0.1-0.1v-0.1v-0.1v-0.1v-0.1v-0.1v-0.1v-0.1v-0.1v-0.1c0-0.1,0-0.1,0-0.2v-0.1 c0-0.1,0-0.2,0-0.2v-6.8h-1.1v6.9c0,2.1-1.3,3.8-3.2,4.7c0.1,0,0.1,0,0.2,0l0,0c0.1,0,0.1,0,0.2-0.1l0,0c0.1,0,0.1,0,0.2-0.1l0,0 c0.4-0.1,0.8-0.3,1.2-0.5l0,0c0.1,0,0.1-0.1,0.2-0.1l0,0l0.1-0.1l0,0l0.1-0.1l0,0l0.1-0.1l0,0c0.1-0.1,0.3-0.3,0.4-0.4l0,0 C69.3,54.7,69.3,54.7,69.3,54.6z"></path><path fill="#0BBBEF" d="M74.2,39.5C73.4,30.2,68,23,61.3,23h-42c-6.6,0-12.1,7.2-12.8,16.5c-0.5,0.4-0.8,1.1-0.8,2 c0,1.3,0.7,2.3,1.6,2.3h66c0.9,0,1.6-1,1.6-2.3C74.9,40.6,74.7,39.9,74.2,39.5z"></path><path fill="#A1DAF8" d="M22,22.9h-2.7c-6.5,0-11.9,7-12.8,16c0.1-0.2,0.2-0.4,0.2-0.7C10,29.8,15.9,24.3,22,22.9 C22,23,22,23,22,22.9z"></path><path fill="#A1DAF8" d="M5.7,40.9c0.2,1.1,0.8,1.9,1.6,1.9h66c0.7,0,1.3-0.8,1.5-1.9C74.8,40.9,5.7,40.9,5.7,40.9z"></path><path fill="#A1DAF8" d="M60.2,24.8L60.2,24.8c0.3-0.1,0.8-0.2,1.3-0.2c2.9,0,5.3,2.9,5.3,6.5c0,0.1,0,0.2,0,0.3 C66.2,27.6,63.5,24.8,60.2,24.8z"></path><path fill="#C9E8FB" d="M50.3,14.3c-3.4,0-6.2,3.4-6.2,7.5h12.3C56.5,17.6,53.8,14.3,50.3,14.3z"></path><path fill="#E3E3E3" d="M78.3,59.6c0,0.8-17,1.4-38,1.4s-38-0.6-38-1.4c0-0.8,17-1.4,38-1.4C61.3,58.1,78.3,58.8,78.3,59.6z"></path><path fill="#D0D0D0" d="M66.9,59.6c0,0.5-11.9,0.8-26.6,0.8S13.7,60,13.7,59.6c0-0.5,11.9-0.8,26.6-0.8C55,58.7,66.9,59.1,66.9,59.6 z"></path><path fill="#FFFFFF" d="M25.2,29.4c2.1,2.2,2.1,5.6,0,7.8s-5.6,2.2-7.8,0c-2.1-2.2-2.1-5.6,0-7.8S23.1,27.3,25.2,29.4z"></path><path fill="#004077" d="M24.6,36.7c-1.8,1.8-4.8,1.8-6.6,0c-1.5-1.5-1.7-3.6-0.9-5.4c0.3,0.8,0.8,1.6,1.5,2.3 c2.2,2.2,5.4,2.4,7.3,0.5c0,0,0,0,0-0.1C25.8,35,25.4,35.9,24.6,36.7z M25.2,29.4c-2.1-2.2-5.6-2.2-7.8,0s-2.1,5.6,0,7.8 s5.6,2.2,7.8,0C27.4,35.1,27.4,31.6,25.2,29.4z"></path><path fill="#FFFFFF" d="M63.1,29.4c2.1,2.2,2.1,5.6,0,7.8c-2.1,2.2-5.6,2.2-7.8,0c-2.1-2.2-2.1-5.6,0-7.8S61,27.3,63.1,29.4z"></path><path fill="#004077" d="M62.6,36.7c-1.8,1.8-4.8,1.8-6.6,0c-1.5-1.5-1.7-3.6-0.9-5.4c0.3,0.8,0.8,1.6,1.5,2.3 c2.2,2.2,5.4,2.4,7.3,0.5c0,0,0,0,0-0.1C63.8,35,63.3,35.9,62.6,36.7z M63.1,29.4c-2.1-2.2-5.6-2.2-7.8,0s-2.1,5.6,0,7.8 s5.6,2.2,7.8,0S65.3,31.6,63.1,29.4z"></path><path fill="#004077" d="M44,34.5c0,1.8-1.7,3.3-3.7,3.3s-3.7-1.5-3.7-3.3c-0.2,0.5-0.3,1-0.3,1.5c0,2,1.8,3.6,4,3.6s4-1.6,4-3.6 C44.3,35.5,44.2,35,44,34.5z"></path><path fill="#D0D0D0" d="M71,55.2c0.3,0.3,6.7-5.5,6.7-5.5c0.3-0.3,0.2-0.8-0.1-1.1c-0.3-0.3-0.8-0.4-1.1-0.1 C76.5,48.5,70.7,54.9,71,55.2z"></path><path fill="#D0D0D0" d="M72.9,49.6c0.2,0.2,3.8-3.1,3.8-3.1c0.2-0.2,0.1-0.4-0.1-0.6c-0.2-0.2-0.5-0.2-0.6-0.1 C76,45.7,72.8,49.4,72.9,49.6z"></path><path fill="none" stroke="#D0D0D0" stroke-width="0.1663" stroke-miterlimit="10" d="M72.9,49.6c0.2,0.2,3.8-3.1,3.8-3.1 c0.2-0.2,0.1-0.4-0.1-0.6c-0.2-0.2-0.5-0.2-0.6-0.1C76,45.7,72.8,49.4,72.9,49.6z"></path><path fill="#D0D0D0" d="M9.6,55.2c-0.3,0.3-6.7-5.5-6.7-5.5c-0.3-0.3-0.2-0.8,0.1-1.1s0.8-0.4,1.1-0.1C4.1,48.5,10,54.9,9.6,55.2z"></path><path fill="#D0D0D0" d="M7.7,49.6c-0.2,0.2-3.8-3.1-3.8-3.1c-0.2-0.2-0.1-0.4,0.1-0.6c0.2-0.2,0.5-0.2,0.6-0.1 C4.6,45.7,7.9,49.4,7.7,49.6z"></path><path fill="none" stroke="#D0D0D0" stroke-width="0.1663" stroke-miterlimit="10" d="M7.7,49.6c-0.2,0.2-3.8-3.1-3.8-3.1 c-0.2-0.2-0.1-0.4,0.1-0.6c0.2-0.2,0.5-0.2,0.6-0.1C4.6,45.7,7.9,49.4,7.7,49.6z"></path><path fill="#C9E8FB" d="M19.9,21.7h5.2c1-9.7,8-17.7,17.3-20c-0.7-0.1-1.4-0.1-2.2-0.1C29.1,1.7,20,10.6,19.9,21.7z"></path><path fill="#4A4A49" d="M40.3,0c-12,0-21.7,9.7-21.7,21.7h0.9h0.4c0.1-11.1,9.2-20,20.4-20c0.7,0,1.5,0,2.2,0.1 c10.2,1.1,18.1,9.5,18.2,20h0.4h0.9C62,10.1,52.3,0,40.3,0z"></path>
</svg>